<svg xmlns="http://www.w3.org/2000/svg" viewBox="0 0 960 790"><defs><linearGradient id="bg" x2="1" y2="1"><stop stop-color="#171717"/><stop offset="1" stop-color="#211836"/></linearGradient><linearGradient id="b" x2="1"><stop stop-color="#172b73"/><stop offset=".5" stop-color="#334dcc"/><stop offset="1" stop-color="#111a55"/><animate attributeName="x1" values="0;0.15;0" dur="8s" repeatCount="indefinite"/></linearGradient><pattern id="w" width="13" height="14" patternUnits="userSpaceOnUse"><path d="M0 0h9v10H0z" fill="#4d68e7"/><path d="M0 0h13v14H0z" fill="none" stroke="#121a54"/></pattern></defs><rect width="960" height="790" fill="url(#bg)"/><g fill="none" stroke="#4f4961" opacity=".3"><path d="M0 60q420 220 960 30M0 100q420 220 960 30M0 140q420 220 960 30M0 180q420 220 960 30"/></g><g transform="translate(160 32)"><path d="M120 130 365 15l205 110v650H120z" fill="url(#b)"/><path d="M120 130 365 15v760H120z" fill="url(#w)"/><path d="m365 15 205 110v650H365z" fill="#14226b"/><path d="M370 35h190v725H370z" fill="url(#w)" opacity=".65"/><path d="M0 450 220 350l190 110v315H0z" fill="url(#w)"/><path d="M410 330 610 240l140 90v445H410z" fill="url(#w)"/><path d="M610 430 760 360l100 70v345H610z" fill="url(#w)" opacity=".75"/></g></svg>

